<?xml version="1.0" encoding="utf-8"?>
<!-- Generator: Adobe Illustrator 17.0.0, SVG Export Plug-In . SVG Version: 6.00 Build 0)  -->
<!DOCTYPE svg PUBLIC "-//W3C//DTD SVG 1.1//EN" "http://www.w3.org/Graphics/SVG/1.1/DTD/svg11.dtd">
<svg version="1.1" id="Layer_1" xmlns="http://www.w3.org/2000/svg" xmlns:xlink="http://www.w3.org/1999/xlink" x="0px" y="0px"
	 width="612px" height="792px" viewBox="0 0 612 792" enable-background="new 0 0 612 792" xml:space="preserve">
<g id="XMLID_1_">
	<g id="XMLID_7_">
		<g id="XMLID_76_">
			<g id="XMLID_81_">
				<path id="XMLID_82_" fill="#333333" d="M5,10c-2.757,0-5-2.243-5-5s2.243-5,5-5s5,2.243,5,5S7.757,10,5,10z M5,0.283
					C2.399,0.283,0.283,2.399,0.283,5c0,2.601,2.116,4.717,4.717,4.717c2.601,0,4.717-2.116,4.717-4.717
					C9.717,2.399,7.601,0.283,5,0.283z"/>
			</g>
			<g id="XMLID_77_">
				<path id="XMLID_78_" fill="#333333" d="M2.452,6.486v1.061h1.061l3.13-3.13L5.583,3.356L2.452,6.486z M7.465,3.597
					c0.11-0.11,0.11-0.289,0-0.399L6.802,2.535c-0.11-0.11-0.289-0.11-0.399,0L5.885,3.053l1.061,1.061L7.465,3.597z"/>
			</g>
		</g>
	</g>
</g>
</svg>
